<svg width="55" height="60" viewBox="0 0 55 60" fill="none" xmlns="http://www.w3.org/2000/svg">
<g id="Group 1">
<g id="Group">
<g id="Group_2">
<g id="Group_3">
<g id="Clip path group">
<mask id="mask0_13_3420" style="mask-type:luminance" maskUnits="userSpaceOnUse" x="0" y="17" width="26" height="28">
<g id="SVGID_2_">
<path id="Vector" d="M17.6158 19.3957C13.8812 17.5975 5.16707 15.1078 1.73982 22.2082C-1.10341 28.0944 -0.918987 40.2665 5.82793 43.5247C12.2521 46.6292 21.9806 39.8823 25.0697 33.4582C28.5584 26.2655 21.3658 21.2092 17.6158 19.3957Z" fill="white"/>
</g>
</mask>
<g mask="url(#mask0_13_3420)">
<path id="Vector_2" d="M28.5583 15.1075H-1.10352V46.6289H28.5583V15.1075Z" fill="url(#paint0_linear_13_3420)"/>
</g>
</g>
</g>
<g id="Group_4">
<g id="Clip path group_2">
<mask id="mask1_13_3420" style="mask-type:luminance" maskUnits="userSpaceOnUse" x="0" y="17" width="15" height="24">
<g id="SVGID_5_">
<path id="Vector_3" d="M8.82485 17.4897C6.01235 17.7048 3.32281 18.9344 1.73982 22.1925C-0.59624 27.0184 -0.888247 36.0552 2.7849 40.9579C9.53181 40.6966 14.9416 35.1331 14.9416 28.3247C14.9416 23.7294 12.4826 19.7182 8.82485 17.4897Z" fill="white"/>
</g>
</mask>
<g mask="url(#mask1_13_3420)">
<path id="Vector_4" d="M14.9417 17.4896H-0.888184V40.9578H14.9417V17.4896Z" fill="url(#paint1_linear_13_3420)"/>
</g>
</g>
</g>
<path id="Vector_5" fill-rule="evenodd" clip-rule="evenodd" d="M10.838 31.1373C10.3923 31.291 9.93121 31.7982 9.68531 32.4744C9.54699 32.8433 9.28572 33.75 9.80826 33.9345C10.3154 34.1189 10.715 33.2736 10.8533 32.9048C11.0992 32.2285 11.0839 31.5523 10.838 31.1373ZM14.8646 32.7511C14.4343 32.9048 14.0193 33.3658 13.7888 33.9959C13.6658 34.3341 13.4199 35.1947 13.8964 35.3638C14.3728 35.5482 14.7417 34.7336 14.88 34.3955C15.1105 33.7808 15.0798 33.1507 14.8646 32.7511ZM20.0132 29.4314C19.5675 29.6005 19.1064 30.0923 18.8605 30.7685C18.7222 31.1373 18.4609 32.0441 18.9834 32.2285C19.4906 32.413 19.8902 31.5677 20.0285 31.1988C20.2744 30.5226 20.2437 29.8464 20.0132 29.4314ZM14.7724 27.4796C14.3267 27.6486 13.8656 28.1404 13.6197 28.8167C13.4814 29.1855 13.2201 30.0923 13.7427 30.2767C14.2498 30.4611 14.6494 29.6158 14.7878 29.247C15.0337 28.5554 15.0183 27.8945 14.7724 27.4796ZM9.54699 25.5124C9.1013 25.666 8.64023 26.1732 8.39433 26.8494C8.25601 27.2183 7.99474 28.1251 8.51728 28.3095C9.02445 28.4939 9.42404 27.6486 9.56236 27.2798C9.79289 26.6035 9.77752 25.9273 9.54699 25.5124ZM5.3513 24.1599C4.90561 24.3136 4.44454 24.8208 4.19864 25.497C4.06032 25.8658 3.79905 26.7726 4.32159 26.957C4.82876 27.1414 5.22835 26.2962 5.36667 25.9273C5.61257 25.2511 5.5972 24.5749 5.3513 24.1599ZM8.82466 20.9478C8.44044 21.0861 8.05622 21.5165 7.84105 22.1005C7.7181 22.4232 7.50294 23.1917 7.94863 23.3607C8.39433 23.5298 8.73244 22.7921 8.84002 22.4693C9.03982 21.8853 9.02445 21.3013 8.82466 20.9478ZM14.6341 22.7306C14.173 22.8228 13.6505 23.2378 13.297 23.8525C13.1126 24.1906 12.713 25.0359 13.1894 25.3126C13.6658 25.5738 14.1884 24.8054 14.3728 24.4519C14.7263 23.8372 14.8031 23.1763 14.6341 22.7306ZM19.214 24.9437C18.8451 25.082 18.4763 25.4816 18.2765 26.0195C18.1689 26.3115 17.9537 27.0492 18.3687 27.2029C18.7837 27.3566 19.1064 26.665 19.214 26.3576C19.4291 25.8351 19.4138 25.2818 19.214 24.9437ZM5.07466 35.1947C4.65971 35.3484 4.24475 35.7941 4.01422 36.4242C3.89127 36.7623 3.66073 37.5922 4.1218 37.7613C4.59823 37.9304 4.95171 37.1466 5.07466 36.8084C5.32057 36.1937 5.28983 35.5789 5.07466 35.1947ZM8.96298 38.1609C8.54802 38.3146 8.13306 38.7603 7.90253 39.3904C7.77958 39.7285 7.53368 40.5584 8.01011 40.7275C8.48654 40.8965 8.84003 40.1127 8.96298 39.7746C9.19351 39.1599 9.17814 38.5451 8.96298 38.1609ZM6.25806 29.831C5.84311 29.9847 5.42815 30.4304 5.19762 31.0605C5.07466 31.3986 4.82876 32.2285 5.3052 32.3976C5.78163 32.5666 6.13511 31.7828 6.25806 31.4447C6.4886 30.83 6.47323 30.2152 6.25806 29.831Z" fill="#E60000"/>
</g>
<g id="Group_5">
<g id="Group_6">
<g id="Clip path group_3">
<mask id="mask2_13_3420" style="mask-type:luminance" maskUnits="userSpaceOnUse" x="13" y="0" width="28" height="25">
<g id="SVGID_8_">
<path id="Vector_6" d="M13.4663 1.69057C17.1395 4.64138 21.0124 8.60654 23.5175 12.7407C26.8525 18.4887 25.7767 24.5286 25.7767 24.5286C27.8054 17.5666 32.9693 16.7366 36.9191 12.4026C39.2398 9.85141 40.9765 6.22437 40.915 1.09119C40.1927 0.230532 27.4212 0.153687 25.623 11.0502C24.0862 7.91494 21.6118 3.85757 17.8157 0C16.3249 0.430327 14.8649 0.998973 13.4663 1.69057Z" fill="white"/>
</g>
</mask>
<g mask="url(#mask2_13_3420)">
<path id="Vector_7" d="M27.2216 38.2837L53.241 12.2643L27.2216 -13.7551L1.20215 12.2643L27.2216 38.2837Z" fill="url(#paint2_linear_13_3420)"/>
</g>
</g>
</g>
<g id="Group_7">
<g id="Clip path group_4">
<mask id="mask3_13_3420" style="mask-type:luminance" maskUnits="userSpaceOnUse" x="25" y="1" width="16" height="24">
<g id="SVGID_11_">
<path id="Vector_8" d="M25.8532 20.21C26.0991 22.7459 25.7764 24.5287 25.7764 24.5287C27.8051 17.5666 32.969 16.7367 36.9188 12.4027C39.1011 9.98978 40.7763 6.62401 40.8993 1.93652C40.1769 3.75004 38.886 5.82484 36.596 7.4693C31.3706 11.2039 26.1452 15.6762 25.8532 20.21Z" fill="white"/>
</g>
</mask>
<g mask="url(#mask3_13_3420)">
<path id="Vector_9" d="M33.338 32.0901L52.1956 13.2325L33.338 -5.625L14.4805 13.2325L33.338 32.0901Z" fill="url(#paint3_linear_13_3420)"/>
</g>
</g>
</g>
<g id="Group_8">
<g id="Clip path group_5">
<mask id="mask4_13_3420" style="mask-type:luminance" maskUnits="userSpaceOnUse" x="8" y="6" width="17" height="18">
<g id="SVGID_14_">
<path id="Vector_10" d="M8.01025 6.40877C8.01025 6.40877 8.22542 14.7233 15.8945 17.1977C20.167 18.919 23.1793 20.963 24.6854 23.1147C23.6864 13.6014 19.4754 6.02455 8.01025 6.40877Z" fill="white"/>
</g>
</mask>
<g mask="url(#mask4_13_3420)">
<path id="Vector_11" d="M24.6854 6.02454H8.01025V23.13H24.6854V6.02454Z" fill="url(#paint4_linear_13_3420)"/>
</g>
</g>
</g>
<g id="Group_9">
<g id="Clip path group_6">
<mask id="mask5_13_3420" style="mask-type:luminance" maskUnits="userSpaceOnUse" x="8" y="6" width="17" height="18">
<g id="SVGID_17_">
<path id="Vector_12" d="M8.01025 6.40877C8.01025 6.40877 8.04099 7.49996 8.44058 8.99073C8.44058 8.99073 21.75 8.91389 24.6854 23.1147C23.6864 13.6014 19.4754 6.02455 8.01025 6.40877Z" fill="white"/>
</g>
</mask>
<g mask="url(#mask5_13_3420)">
<path id="Vector_13" d="M28.9734 7.16185L9.13225 1.84424L3.73779 21.9774L23.5789 27.295L28.9734 7.16185Z" fill="url(#paint5_linear_13_3420)"/>
</g>
</g>
</g>
</g>
<g id="Group_10">
<g id="Group_11">
<g id="Clip path group_7">
<mask id="mask6_13_3420" style="mask-type:luminance" maskUnits="userSpaceOnUse" x="11" y="30" width="30" height="31">
<g id="SVGID_20_">
<path id="Vector_14" d="M25.7459 30.9223C33.7685 30.9223 40.2848 37.4233 40.2848 45.4612C40.2848 53.4837 33.7838 60.0001 25.7459 60.0001C17.7234 60.0001 11.207 53.4991 11.207 45.4612C11.207 37.4233 17.708 30.9223 25.7459 30.9223Z" fill="white"/>
</g>
</mask>
<g mask="url(#mask6_13_3420)">
<path id="Vector_15" d="M40.2848 30.9223H11.207V60.0001H40.2848V30.9223Z" fill="url(#paint6_linear_13_3420)"/>
</g>
</g>
</g>
<g id="Group_12">
<g id="Clip path group_8">
<mask id="mask7_13_3420" style="mask-type:luminance" maskUnits="userSpaceOnUse" x="21" y="31" width="20" height="29">
<g id="SVGID_23_">
<path id="Vector_16" d="M28.5892 31.1987C35.2592 32.5204 40.2695 38.4067 40.2695 45.461C40.2695 53.4835 33.7685 59.9999 25.7306 59.9999C24.1476 59.9999 22.6261 59.7386 21.1968 59.2776C30.5257 59.9845 38.0871 41.0655 28.5892 31.1987Z" fill="white"/>
</g>
</mask>
<g mask="url(#mask7_13_3420)">
<path id="Vector_17" d="M40.2695 31.1987H21.1968V59.9845H40.2695V31.1987Z" fill="url(#paint7_linear_13_3420)"/>
</g>
</g>
</g>
<g id="Group_13">
<g id="Clip path group_9">
<mask id="mask8_13_3420" style="mask-type:luminance" maskUnits="userSpaceOnUse" x="11" y="31" width="16" height="25">
<g id="SVGID_26_">
<path id="Vector_18" d="M15.3412 55.6198C12.7747 53.0071 11.207 49.4108 11.207 45.461C11.207 38.3298 16.3402 32.3975 23.1179 31.168C25.4539 33.8114 26.8832 37.2694 26.8832 41.0809C26.8832 48.1505 21.9652 54.0829 15.3412 55.6198Z" fill="white"/>
</g>
</mask>
<g mask="url(#mask8_13_3420)">
<path id="Vector_19" d="M26.8832 31.1525H11.207V55.6043H26.8832V31.1525Z" fill="url(#paint8_linear_13_3420)"/>
</g>
</g>
</g>
<path id="Vector_20" fill-rule="evenodd" clip-rule="evenodd" d="M25.1621 57.51C19.5371 55.9577 15.3876 50.8092 15.3876 44.677C15.3876 43.6012 15.5105 42.5561 15.7564 41.5571C16.3404 39.0981 17.616 36.9158 19.3527 35.1945C16.8783 36.7467 14.988 39.1596 14.1427 42.0336C13.8199 43.1094 13.6509 44.2621 13.6509 45.4455C13.6662 51.9311 18.7687 57.218 25.1621 57.51Z" fill="white"/>
</g>
<g id="Group_14">
<g id="Group_15">
<g id="Clip path group_10">
<mask id="mask9_13_3420" style="mask-type:luminance" maskUnits="userSpaceOnUse" x="27" y="15" width="28" height="43">
<g id="SVGID_29_">
<path id="Vector_21" d="M51.6424 45.5532C49.4139 50.8861 43.7736 59.7078 36.5041 56.2345C32.6158 54.3749 33.8607 50.6249 32.9232 47.213C30.2951 37.6075 25.1619 34.0112 27.8054 24.9436C33.123 6.793 63.9374 16.1833 51.6424 45.5532Z" fill="white"/>
</g>
</mask>
<g mask="url(#mask9_13_3420)">
<path id="Vector_22" d="M63.9376 6.79297H25.1621V59.7078H63.9376V6.79297Z" fill="url(#paint9_linear_13_3420)"/>
</g>
</g>
</g>
<g id="Group_16">
<g id="Clip path group_11">
<mask id="mask10_13_3420" style="mask-type:luminance" maskUnits="userSpaceOnUse" x="35" y="28" width="20" height="30">
<g id="SVGID_32_">
<path id="Vector_23" d="M51.6424 45.5531C49.414 50.8861 43.7736 59.7078 36.5041 56.2344C36.2736 56.1269 36.0738 56.0039 35.874 55.881C41.8218 55.9885 56.0072 42.5716 54.0553 28.2017C55.0389 32.8124 54.5471 38.6218 51.6424 45.5531Z" fill="white"/>
</g>
</mask>
<g mask="url(#mask10_13_3420)">
<path id="Vector_24" d="M55.992 28.2018H35.8589V59.7079H55.992V28.2018Z" fill="url(#paint10_linear_13_3420)"/>
</g>
</g>
</g>
<g id="Group_17">
<g id="Clip path group_12">
<mask id="mask11_13_3420" style="mask-type:luminance" maskUnits="userSpaceOnUse" x="27" y="15" width="18" height="27">
<g id="SVGID_35_">
<path id="Vector_25" d="M31.0328 41.8646C28.4815 35.8554 25.6998 32.1054 27.8053 24.9281C29.9416 17.628 36.2121 14.7847 42.1444 15.922C43.4508 18.4271 44.1731 21.2857 44.1731 24.3134C44.1885 32.6279 38.6403 39.6515 31.0328 41.8646Z" fill="white"/>
</g>
</mask>
<g mask="url(#mask11_13_3420)">
<path id="Vector_26" d="M44.1887 14.785H25.7153V41.8649H44.1887V14.785Z" fill="url(#paint11_linear_13_3420)"/>
</g>
</g>
</g>
<path id="Vector_27" fill-rule="evenodd" clip-rule="evenodd" d="M35.3974 43.9551C35.3974 43.9551 29.3421 36.4859 29.9107 28.325C30.3103 22.6693 34.8441 22.0545 32.9845 28.6785C32.0624 31.9521 33.0152 37.1775 35.3974 43.9551Z" fill="white"/>
</g>
</g>
</g>
<defs>
<linearGradient id="paint0_linear_13_3420" x1="21.6923" y1="30.8708" x2="-2.98307" y2="30.8708" gradientUnits="userSpaceOnUse">
<stop stop-color="#FF0000"/>
<stop offset="1" stop-color="#F38288"/>
</linearGradient>
<linearGradient id="paint1_linear_13_3420" x1="21.7535" y1="29.2314" x2="2.15552" y2="29.2314" gradientUnits="userSpaceOnUse">
<stop stop-color="#FF0000"/>
<stop offset="1" stop-color="#F38288"/>
</linearGradient>
<linearGradient id="paint2_linear_13_3420" x1="25.5399" y1="13.9498" x2="41.9467" y2="-2.45693" gradientUnits="userSpaceOnUse">
<stop stop-color="#4BBC39"/>
<stop offset="1" stop-color="#BEDE19"/>
</linearGradient>
<linearGradient id="paint3_linear_13_3420" x1="27.3191" y1="19.258" x2="43.8918" y2="2.6853" gradientUnits="userSpaceOnUse">
<stop stop-color="#3AA34E"/>
<stop offset="1" stop-color="#BEDE19"/>
</linearGradient>
<linearGradient id="paint4_linear_13_3420" x1="20.3713" y1="14.5707" x2="3.55298" y2="14.5707" gradientUnits="userSpaceOnUse">
<stop stop-color="#4BBC39"/>
<stop offset="1" stop-color="#BEDE19"/>
</linearGradient>
<linearGradient id="paint5_linear_13_3420" x1="24.2613" y1="16.6901" x2="4.31066" y2="11.3444" gradientUnits="userSpaceOnUse">
<stop stop-color="#3AA34E"/>
<stop offset="1" stop-color="#BEDE19"/>
</linearGradient>
<linearGradient id="paint6_linear_13_3420" x1="12.5431" y1="45.4558" x2="33.7789" y2="45.4558" gradientUnits="userSpaceOnUse">
<stop stop-color="#FFBE04"/>
<stop offset="1" stop-color="#FF7F00"/>
</linearGradient>
<linearGradient id="paint7_linear_13_3420" x1="12.3805" y1="45.5967" x2="29.4365" y2="45.5967" gradientUnits="userSpaceOnUse">
<stop stop-color="#FFBE04"/>
<stop offset="1" stop-color="#FF7F00"/>
</linearGradient>
<linearGradient id="paint8_linear_13_3420" x1="18.6455" y1="43.3887" x2="33.579" y2="43.3887" gradientUnits="userSpaceOnUse">
<stop stop-color="#FFBE04"/>
<stop offset="1" stop-color="#FF7F00"/>
</linearGradient>
<linearGradient id="paint9_linear_13_3420" x1="52.2997" y1="33.2505" x2="29.0928" y2="33.2505" gradientUnits="userSpaceOnUse">
<stop stop-color="#016737"/>
<stop offset="1" stop-color="#4BBC39"/>
</linearGradient>
<linearGradient id="paint10_linear_13_3420" x1="47.8088" y1="43.9588" x2="32.088" y2="43.9588" gradientUnits="userSpaceOnUse">
<stop stop-color="#016737"/>
<stop offset="1" stop-color="#4BBC39"/>
</linearGradient>
<linearGradient id="paint11_linear_13_3420" x1="52.47" y1="28.3282" x2="31.9037" y2="28.3282" gradientUnits="userSpaceOnUse">
<stop stop-color="#016737"/>
<stop offset="1" stop-color="#4BBC39"/>
</linearGradient>
</defs>
</svg>
